<svg width="16" height="16" viewBox="0 0 16 16" fill="none" xmlns="http://www.w3.org/2000/svg">
<path d="M7.66667 14.6667C6.64444 14.6667 5.77778 14.3111 5.06667 13.6C4.35556 12.8889 4 12.0222 4 11V3.99999C4 3.26666 4.26111 2.63888 4.78333 2.11666C5.30556 1.59444 5.93333 1.33333 6.66667 1.33333C7.4 1.33333 8.02778 1.59444 8.55 2.11666C9.07222 2.63888 9.33333 3.26666 9.33333 3.99999V10.3333C9.33333 10.8 9.17222 11.1944 8.85 11.5167C8.52778 11.8389 8.13333 12 7.66667 12C7.2 12 6.80556 11.8389 6.48333 11.5167C6.16111 11.1944 6 10.8 6 10.3333V3.99999H7V10.3333C7 10.5222 7.06389 10.6806 7.19167 10.8083C7.31944 10.9361 7.47778 11 7.66667 11C7.85556 11 8.01389 10.9361 8.14167 10.8083C8.26944 10.6806 8.33333 10.5222 8.33333 10.3333V3.99999C8.33333 3.53333 8.17222 3.13888 7.85 2.81666C7.52778 2.49444 7.13333 2.33333 6.66667 2.33333C6.2 2.33333 5.80556 2.49444 5.48333 2.81666C5.16111 3.13888 5 3.53333 5 3.99999V11C5 11.7333 5.26111 12.3611 5.78333 12.8833C6.30556 13.4056 6.93333 13.6667 7.66667 13.6667C8.4 13.6667 9.02778 13.4056 9.55 12.8833C10.0722 12.3611 10.3333 11.7333 10.3333 11V3.99999H11.3333V11C11.3333 12.0222 10.9778 12.8889 10.2667 13.6C9.55556 14.3111 8.68889 14.6667 7.66667 14.6667Z" fill="#5A5A5A"/>
</svg>
