<svg xmlns="http://www.w3.org/2000/svg" xml:space="preserve" viewBox="0 0 128 128" id="Companies">
  <path d="M126 124h-2V21.9c0-2.197-1.547-4.878-3.453-5.986 0 0-14.393-7.21-14.422-7.226-2.031-1.017-4.685-.914-6.439.64l-6.702 5.946C91.335 16.736 90 19.704 90 21.9v44.242c1.514-.707 3.36-1.109 5.282-1.109 1.292 0 3.213.177 5.028 1.018l4.69 2.17v-7.637l15 7.893v7.48l-4.94-2.6c.578.98.94 5.014.94 5.014l4 2.105v7.48l-4-2.105v4.518l4 2.106v7.48l-4-2.106v4.52l4 2.105v7.48l-4-2.106v4.52l4 2.104V124h-8V79.874c0-2.208-1.625-4.751-3.63-5.68l-9.74-4.507c-.937-.433-2.136-.647-3.348-.647-1.383 0-2.782.278-3.824.825l-7.916 4.152C81.586 75.043 80 77.666 80 79.874V124h-4V13.977c0-2.208-1.546-4.904-3.453-6.019L60.125.693c-1.943-1.136-4.757-.844-6.439.644l-6.702 5.978C45.336 8.785 44 11.77 44 13.977V124h-4V32.823c0-2.223-1.595-4.847-3.562-5.86l-8.505-4.381c-1.579-.813-3.685-.787-5.276-.01-.432.21-.942.5-1.284.841L6.998 36.193C5.342 37.667 4 40.663 4 42.886V124H2a2 2 0 0 0 0 4h124a2 2 0 0 0 0-4zm-103 0h-6.632L23 118.39V124zm0-10.849-12.792 10.823.022.026H8v-5.425l15-12.749v7.325zm0-12.572L8 113.33v-7.752l15-12.749v7.751zm0-12.998L8 100.33v-7.75l15-12.75v7.752zm0-12.999L8 87.332v-7.753l15-12.748v7.751zm0-12.999L8 74.332v-7.75l15-12.75v7.751zm0-12.998L8 61.333v-7.751l15-12.748v7.751zm0-13L8 48.336v-5.45c0-1.083.852-2.987 1.656-3.702L23 27.318v8.268zM72 124H60v-10.078l12 6.749V124zm0-7.919-12-6.749v-7.41l12 6.75v7.41zm0-11.998-12-6.75v-7.41l12 6.75v7.41zm0-11.999-12-6.749v-7.41l12 6.75v7.409zm0-11.999-12-6.75v-7.408l12 6.749v7.409zm0-11.998-12-6.75v-7.41l12 6.75v7.41zm0-12L60 49.34v-7.41l12 6.75v7.409zm0-11.998-12-6.75v-7.408l12 6.749v7.409zm0-11.998-12-6.75v-7.41l12 6.75v7.41zm0-12-12-6.748V5.255l10.527 6.156c.675.395 1.473 1.785 1.473 2.566v6.115zM93 124h-9V79.874c0-.725.759-1.978 1.4-2.315l7.6-3.987V124zm27-60.042-15-7.895v-7.478l15 7.893v7.48zm0-11.998-15-7.895v-7.48l15 7.894v7.481zm0-12-15-7.894v-7.478l15 7.893v7.48zm0-11.998-15-7.895V12.6l13.604 6.815c.656.44 1.396 1.744 1.396 2.486v6.062z" fill="#ffffff" class="color000000 svgShape"></path>
</svg>
