<svg xmlns="http://www.w3.org/2000/svg" viewBox="0 0 110 110" id="events">
  <path d="M102.99 94.738v1.219a6.7 6.7 0 0 1-6.69 6.69H13.69A6.7 6.7 0 0 1 7 95.957V94.738a8.176 8.176 0 0 0 6.69 3.469H96.3A8.176 8.176 0 0 0 102.99 94.738zM27.68 10.693v9.65a3.35 3.35 0 0 1-6.7 0v-9.65a3.35 3.35 0 0 1 6.7 0zM58.34 10.693v9.65a3.345 3.345 0 1 1-6.69 0v-9.65a3.345 3.345 0 0 1 6.69 0zM43.01 10.693v9.65a3.345 3.345 0 1 1-6.69 0v-9.65a3.345 3.345 0 0 1 6.69 0zM73.67 10.693v9.65a3.345 3.345 0 1 1-6.69 0v-9.65a3.345 3.345 0 0 1 6.69 0z" fill="#ffffff" class="color000000 svgShape"></path>
  <path d="M103,21.108v11.86H7V21.108a6.7,6.7,0,0,1,6.69-6.69h5.79v5.57a4.85,4.85,0,0,0,9.7,0v-5.57h5.64v5.57a4.845,4.845,0,1,0,9.69,0v-5.57h5.64v5.57a4.845,4.845,0,1,0,9.69,0v-5.57h5.64v5.57a4.845,4.845,0,1,0,9.69,0v-5.57h5.64v5.57a4.85,4.85,0,0,0,9.7,0v-5.57h5.8a6.65,6.65,0,0,1,6.16,4.1A6.48,6.48,0,0,1,103,21.108Z" fill="#ffffff" class="color000000 svgShape"></path>
  <path d="M89.01 10.693v9.65a3.35 3.35 0 0 1-6.7 0v-9.65a3.35 3.35 0 0 1 6.7 0zM7 34.468v55.56a6.694 6.694 0 0 0 6.69 6.679H96.3a6.694 6.694 0 0 0 6.69-6.679V34.468zm7.621 5.725H35.544a.75.75 0 0 1 0 1.5H14.621a.75.75 0 0 1 0-1.5zm13.391 6.626H14.621a.75.75 0 0 1 0-1.5H28.012a.75.75 0 0 1 0 1.5zm49.638 13.2L66.87 70.528l2.55 14.84a.753.753 0 0 1-1.09.789l-13.33-7-13.32 7a.709.709 0 0 1-.35.081.726.726 0 0 1-.44-.14.748.748 0 0 1-.3-.73l2.54-14.84L32.35 60.018a.718.718 0 0 1-.19-.76.733.733 0 0 1 .6-.51l14.9-2.18 6.67-13.5a.778.778 0 0 1 1.34 0l6.67 13.5 14.9 2.18a.744.744 0 0 1 .41 1.27z" fill="#ffffff" class="color000000 svgShape"></path>
</svg>
