<svg xmlns="http://www.w3.org/2000/svg" viewBox="0 0 68 68" id="reports">
  <path d="M56.69 9.44h-1.046v46.62a4.016 4.016 0 0 1-4.014 4.014H14.389v2.56a2.869 2.869 0 0 0 2.865 2.866H56.69a2.862 2.862 0 0 0 2.866-2.866V12.285A2.851 2.851 0 0 0 56.69 9.44zm-35.35 3.97V2.5L8.448 15.393h10.91a1.981 1.981 0 0 0 1.982-1.981z" fill="#ffffff" class="color000000 svgShape"></path>
  <path d="M53.611 56.06V4.481A1.977 1.977 0 0 0 51.63 2.5H23.37v10.913a4.016 4.016 0 0 1-4.013 4.014H8.444V56.06c0 1.098.884 1.982 1.982 1.982H51.63a1.977 1.977 0 0 0 1.981-1.982zM28.086 33.004a6.827 6.827 0 0 1-4.318 1.524 6.842 6.842 0 0 1-3.313-.853l2.591-3.445.854-1.138 4.186 3.912zm-3.302-5.873v-6.432c3.353.498 5.934 3.394 5.934 6.879a6.897 6.897 0 0 1-1.24 3.943c-.01 0-4.572-4.268-4.694-4.39zm-2.033-6.432v6.534l-3.922 5.222a6.863 6.863 0 0 1-2.012-4.877c0-3.485 2.581-6.381 5.934-6.88zm23.504 33.624H15.8a1.02 1.02 0 0 1-1.016-1.017 1.02 1.02 0 0 1 1.016-1.016h2.164v-4.725a1.02 1.02 0 0 1 1.017-1.016h4.897a1.02 1.02 0 0 1 1.016 1.016v4.725h2.927v-8.129a1.02 1.02 0 0 1 1.016-1.016h4.898a1.02 1.02 0 0 1 1.016 1.016v8.13h2.906V39.893a1.02 1.02 0 0 1 1.016-1.017h4.888c.569 0 1.016.458 1.016 1.017V52.29h1.677c.569 0 1.016.458 1.016 1.016 0 .56-.447 1.017-1.016 1.017zm1.514-37.912H27.802a1.013 1.013 0 0 1-1.017-1.016c0-.57.448-1.017 1.017-1.017h19.967c.569 0 1.016.448 1.016 1.017 0 .559-.447 1.016-1.016 1.016zm0-6.453H27.802a1.006 1.006 0 0 1-1.017-1.016c0-.559.448-1.016 1.017-1.016h19.967c.569 0 1.016.457 1.016 1.016 0 .57-.447 1.016-1.016 1.016z" fill="#ffffff" class="color000000 svgShape"></path>
</svg>
