<svg xmlns="http://www.w3.org/2000/svg" viewBox="0 0 70 70" id="UniversityStudents">
  <path d="M67.8 42.6c.2-1.1-2.3-3.9-2.3-3.9 0-1.8-1.3-4-2.2-5.1-.5.3-1.1.5-1.7.5h-.3l-5.3-.7c-.6 11.5-.5 10.9-.6 11.2.7 4.1 1.3 10.3 1.3 10.3v.1c1.8.7 6.4-2 6.4-2 3-1.6 3.9-6.6 3.9-6.6 1.6-1.9.8-3.8.8-3.8zm-37.6-1.1c-.5-1.5-1.7-5-3.1-8.6l-.6 12.3c-.1 1.4-.9 2.6-2 3.2 0-.4-.1-.7-.2-1.1.1-.1 1.2-.8 1.2-2.2.1-1.8-.3 6 .8-14.7-.2-.4-.3-.7-.4-1.1-.1-.4-.3-.7-.4-1.1v-1.1 1c-1.1-3.4-1.6-6.9-1.2-10.5-.9-.5-2.2-1-3.4-1.4-2.1 1.8-6.1 1.9-8.4.3.3-.1.5-.2.8-.3-.5.1-1.1.4-1.6.6-1 .4-2.7 1.3-3.8 2.1-1.3.5-1.2 1.7-1.4 2.1-.4 1.6 1.6-5.6-4.2 15.3-.4 1.6 1.1 2.9 2.5 2.5.1 0 3.8-1.1 3.5-1.1.1 0 3-.9 2.8-.9l3.7-1.1c1.1-.3 1.6-1.4 1.3-2.5s-1.4-1.6-2.5-1.3l-2.5.8c-.1 0-3.2 1-3 .9l-1 .3v-.1l.3-1 .6-2 .1 1.8c.1 0 2.2-.7 2.1-.6v-8.3c0-.9.7-1.6 1.6-1.6l9.7.1c.4 0 .8.2 1.1.5.3.3.5.8.5 1.2l-.3 15.7c0 .9-.7 1.6-1.6 1.6l-9.5-.3c-1.9-.1-1.5-2.4-1.6-2.5-.1 0-1.4.4-1.3.4l-.5.1c.5 5.7-.1 7 1 8.2.2.2.4.4.6.5 0 .3 1.2 5.8 1.4 16.3 0 1.6 1.4 3 3 3h.1c1.7 0 3-1.4 2.9-3-.1-5.4-.4-10.3-1.1-14.9 0-.3-.1-.7-.1-1h2.4c0 .3.1.7.2 1 .7 4.5 1.1 9.5 1.1 14.9 0 1.6 1.4 3 3 3 1.7 0 3-1.4 3-3-.1-5.2-.4-10.1-1-14.5l1.5 2.8c.3.5 1 .5 1.3.1.9 1.1 5.7-7.7 6.2-8.3l-.1-.2c-1.3.1-3-.6-3.5-2.3zm22-8.5c-.2 0-1.2 0-2-.8l-5.7 11.5c0 .1-.1.2-.2.3-.7 1-2.1.9-2.8-.1l-.5-.7-2.6-3.8c-.1-.1-1.1-1.7-1.1-1.6l.3 6.3c.1.9.6 1.8 1.4 2.3v16.8c0 1.7 1.3 3 3 3s3-1.3 3-3V46.7h2v16.5c0 1.7 1.4 3 3 3 1.7 0 3-1.3 3-3V46.4c1.9-1.1 1.3-3.3 1.5-5l.1-2.4c-.6-1-1.7-3.2-2.4-6zm1.1.2c.3 1 .6 2.1 1 3 .1.2.3.7.4 1l.2-3.8c0-.1-1.7-.2-1.6-.2z" fill="#ffffff" class="color000000 svgShape"></path>
  <path d="m14.9 36.6-4 1.2c.1.5-.3 1.8.6 1.9l9.5.3c.4 0 .6-.3.6-.6l.3-15.7c0-.4-.3-.7-.6-.7l-9.7-.1c-.3 0-.6.3-.6.6v8l2.2-.7c1.6-.5 3.3.4 3.7 2 .5 1.7-.4 3.4-2 3.8zm26.5-21.5c.4.3.9.5 1.3.6 1.2.4 2.5.4 3.7.1.4-.1.7-.2 1.1-.4.5-.2.9-.5 1.3-.8 1.5-1.2 2.4-3 2.4-5 0-3.5-2.9-6.4-6.4-6.4-3.6 0-6.5 2.9-6.5 6.4.1 2.4 1.3 4.4 3.1 5.5zm-28.7.3c.4.3.8.5 1.2.7 1.7.7 3.7.6 5.3-.2 2.1-1 3.6-3.2 3.6-5.8 0-3.6-2.9-6.4-6.5-6.4s-6.5 2.9-6.5 6.4c.2 2.2 1.2 4.1 2.9 5.3zm26 22.6c.1.1 3.9 5.8 3.7 5.5.4.5 1.1.5 1.4-.1l2.1-4.2c-1.5.4-2.3-.3-7.2-1.2zM50 28l-8.1-5.9c-.4-.3-1-.1-1.2.4l-2.6 7.2-.4 1.2-.2.6c.1 0 .9.2.8.2l7.3 1.7c1 .2 1.8 1 2.2 2l1.9-3.8c-.3-.5-.4-1.1-.4-1.8-.1-.8.2-1.4.7-1.8z" fill="#ffffff" class="color000000 svgShape"></path>
  <path d="M37.9 36.8c7.1 1.6 6.8 1.5 6.9 1.5.9 0 1.8-.6 1.9-1.6.2-1.1-.4-2.1-1.5-2.4-.1 0-8.1-1.8-7.5-1.7-.1 0-3.3-.7-3.2-.7l.1-.2c.1-.1 2.5-5 2.3-4.7l.1 2.6.4-1.2c0-.1 2.5-6.7 2.3-6.3.4-1.1 1.7-1.5 2.6-.8l8.3 6c.2-.1.4-.2.6-.2-.3-3.7-.1-7.8.3-10.7h-.1c-1-.4-1.9-.7-2.3-.7-2 1.7-5.7 2-8.1.5-.4.1-.8.3-1.3.5-.9.4-2.2 1.2-2.3 1.3-1.1.3-1.4 1.5-1.9 2.5l-3.8 7.6-.6 1.2c-1.5-4-3-7.9-3.4-9-.2-.6-.5-1.2-1.4-1.5-.2-.2-.9-.6-1.3-.8-.3 2.4 0 6.4 1.3 9.8.2.5 1 2.7 1 2.8 1.6 4.2 3.2 8.6 3.7 10.4.3 1 1.3 1.5 2.1 1.4.1 0 .3 0 .4-.1 1.1-.3 1.7-1.4 1.4-2.5-.3-.9-.8-2.5-1.4-4.3.2.4 4.8 1.4 4.4 1.3z" fill="#ffffff" class="color000000 svgShape"></path>
  <path d="M61.4 33h.2c1.6 0 2.6-1.8 1.7-3.1-2.1-3.1-7.1-10.7-7.7-11.1-.1-.1-.9-.7-1-.7-.5-.4-1.6-.9-2-1.1 0 .2-.6 4.8-.2 10.1h.2c.1 0 2.5.3 2.3.3.1 0 .6.1.5 0l.1-2 .9 1.4c.1.1 1.4 2 1.3 1.9-.1 0-2.5-.3-2.4-.3-.1 0-1.1-.1-1-.1-1.4-.1-2-.4-2.8-.1l-.1-.1v.2c-.3.1-.5.3-.7.5-.3.3-.5.7-.5 1.1v.4c.1.9.8 1.7 1.8 1.8.5.1 4.3.5 4.1.4l5.3.5z" fill="#ffffff" class="color000000 svgShape"></path>
</svg>
